<svg width="800" height="500" viewBox="0 0 800 500" xmlns="http://www.w3.org/2000/svg">
  <rect width="800" height="500" fill="#f6f1e4"/>
  <rect y="340" width="800" height="160" fill="#6f8f4d"/>
  <circle cx="220" cy="220" r="120" fill="#d8b254"/>
  <path d="M120 220c0-80 60-140 130-140 60 0 110 45 120 100-26-24-60-40-100-40-70 0-120 35-150 80Z" fill="#8c5e2c"/>
  <path d="M360 180c20-60 70-100 130-100 40 0 80 16 108 44-34-24-74-38-118-38-56 0-102 25-120 94Z" fill="#4f7d3d"/>
  <path d="M530 190c38-58 90-90 158-90 30 0 60 8 90 24-34-24-78-38-122-38-62 0-113 28-126 104Z" fill="#8aa04b"/>
  <path d="M90 315c40-20 95-26 148-16" stroke="#3b5b2b" stroke-width="16" fill="none" stroke-linecap="round"/>
  <path d="M290 310c55-18 128-18 184 0" stroke="#3b5b2b" stroke-width="16" fill="none" stroke-linecap="round"/>
  <path d="M500 300c42-15 98-12 164 6" stroke="#3b5b2b" stroke-width="16" fill="none" stroke-linecap="round"/>
  <text x="400" y="450" text-anchor="middle" font-family="Book Antiqua, Georgia, serif" font-size="44" fill="#234227">Rice</text>
</svg>
